<svg xmlns="http://www.w3.org/2000/svg" width="41" height="41" viewBox="0 0 41 41"><g><g><path fill="#2ecc71" d="M20.25 41C9.067 41 0 31.934 0 20.75 0 9.567 9.067.5 20.25.5 31.434.5 40.5 9.567 40.5 20.75 40.5 31.934 31.434 41 20.25 41zM5.82 20.418c1.421-.158 4.362-.375 5.752.332 2.403 1.224 5.015 4.19 5.015 4.19l-5.768 6.696c2.538 2.2 5.809 3.578 9.431 3.578 7.989 0 14.465-6.475 14.465-14.464 0-1.368-.251-2.666-.607-3.92-1.177 1.374-3.562 3.135-3.562 3.135-2.026-.223-1.043 2.28-1.043 2.28.854 5.542-2.084 6.226-2.084 6.226-4.008 4.116-7.169-4.828-7.169-4.828-.742-4.979-1.169-6.571-1.169-6.571-5.13-3.207-.075-4.375 1.011-4.56.014-.003.017.002.032 0 .261-.038.198-.04-.032 0-1.451.198-1.174-.684-2.053-2.28-.887-1.61-1.973.27-2.084 0-.112-.27-.624 2.952-2.085 3.42-1.46.469-1.042-3.42-1.042-3.42-2.82 4.32-3.742 3.217-4.038 1.797-1.781 2.348-2.897 5.23-2.97 8.389z"/></g></g></svg>