<svg xmlns="http://www.w3.org/2000/svg" width="36" height="36" viewBox="0 0 36 36"><g><g><path fill="#2ecc71" d="M27.125 26.625c0 .766-.097 1.51-.28 2.22h1.39a3.328 3.328 0 0 0 0-6.657h-2.318a8.716 8.716 0 0 1 1.208 4.437zM18.25 35.5H9.375A8.875 8.875 0 0 1 .5 26.625c0-2.902 1.414-5.455 3.568-7.075a15.271 15.271 0 0 1-1.349-6.237C2.719 5.96 7.686 0 13.813 0c2.805 0 5.367 1.25 7.32 3.31 1.15-.68 2.418-1.09 3.773-1.09 4.902 0 8.876 4.966 8.876 11.093a13.1 13.1 0 0 1-1.303 5.71A7.748 7.748 0 0 1 36 25.517a7.766 7.766 0 0 1-7.765 7.766H24.12a8.84 8.84 0 0 1-5.87 2.218zm6.656-22.187c0 1.565-.246 3.052-.672 4.437h3.958c.709-1.18 1.152-2.725 1.152-4.437 0-3.676-1.987-6.657-4.438-6.657-.465 0-.906.135-1.327.336.847 1.88 1.327 4.033 1.327 6.32zM13.813 4.438c-3.677 0-6.656 3.973-6.656 8.875 0 4.901 2.98 8.875 6.656 8.875 3.676 0 6.656-3.974 6.656-8.875 0-4.902-2.98-8.875-6.656-8.875zm7.302 18.825c-1.954 2.067-4.492 3.362-7.302 3.362-2.811 0-5.348-1.295-7.303-3.362-.954.813-1.572 2.01-1.572 3.362a4.438 4.438 0 0 0 4.437 4.438h8.875a4.438 4.438 0 0 0 4.438-4.438c0-1.352-.618-2.549-1.573-3.362zm2.756-4.467z"/></g></g></svg>